<svg xmlns="http://www.w3.org/2000/svg" viewBox="0 0 410 404"><defs><linearGradient id="a" x1="19.128%" x2="50%" y1="14.249%" y2="89.03%"><stop offset="0%" stop-color="#41D1FF"/><stop offset="100%" stop-color="#BD34FE"/></linearGradient></defs><path fill="url(#a)" d="m399.641 59.5-183.998 329.02a8.028 8.028 0 0 1-7.015 4.148 8.028 8.028 0 0 1-7.014-4.148L16.64 59.5a8.028 8.028 0 0 1 7.015-12.02h368.972a8.028 8.028 0 0 1 7.014 12.02"/><path fill="#fff" d="M292.965 1.574 156.801 28.255a8 8 0 0 0-6.17 9.489l22.04 108.053a8 8 0 0 0 9.49 6.17l108.052-22.041a8 8 0 0 0 6.17-9.488L274.342 11.884a8 8 0 0 0-9.489-6.17z"/></svg>
